STARTFONT 2.1
COMMENT  Nethack 10x20 font.  Based on the font 10x20.
FONT nh10
SIZE 20 75 75
FONTBOUNDINGBOX 10 20 0 -5
STARTPROPERTIES 19
FONTNAME_REGISTRY ""
FOUNDRY "Misc"
FAMILY_NAME "Fixed"
WEIGHT_NAME "Medium"
SLANT "R"
SETWIDTH_NAME "Normal"
ADD_STYLE_NAME "NetHack"
PIXEL_SIZE 20
POINT_SIZE 200
RESOLUTION_X 75
RESOLUTION_Y 75
SPACING "C"
AVERAGE_WIDTH 100
CHARSET_REGISTRY "ISO8859"
CHARSET_ENCODING "1"
DEFAULT_CHAR 0
FONT_DESCENT 5
FONT_ASCENT 15
COPYRIGHT "Copyright 1989-1991 Network Computing Devices, Inc."
ENDPROPERTIES
CHARS 256
STARTCHAR C000
ENCODING 0
SWIDTH 878 0
DWIDTH 10 0
BBX 10 20 0 -5
BITMAP
0000
0000
0000
0000
0000
0000
0000
0000
0000
0000
0000
0000
0000
0000
0000
0000
0000
0000
0000
0000
ENDCHAR
STARTCHAR C001
ENCODING 1
SWIDTH 878 0
DWIDTH 10 0
BBX 10 20 0 -5
BITMAP
0000
0000
0000
0000
0000
0c00
1e00
3f00
7f80
7f80
3f00
1e00
0c00
0000
0000
0000
0000
0000
0000
0000
ENDCHAR
STARTCHAR C002
ENCODING 2
SWIDTH 878 0
DWIDTH 10 0
BBX 10 20 0 -5
BITMAP
5540
aa80
5540
aa80
5540
aa80
5540
aa80
5540
aa80
5540
aa80
5540
aa80
5540
aa80
5540
aa80
5540
aa80
ENDCHAR
STARTCHAR C003
ENCODING 3
SWIDTH 878 0
DWIDTH 10 0
BBX 10 20 0 -5
BITMAP
0000
0000
0000
0000
6600
6600
6600
7e00
6600
6600
6600
0000
1f80
0600
0600
0600
0600
0600
0000
0000
ENDCHAR
STARTCHAR C004
ENCODING 4
SWIDTH 878 0
DWIDTH 10 0
BBX 10 20 0 -5
BITMAP
0000
0000
0000
0000
7c00
6000
6000
7800
6000
6000
6000
0f80
0c00
0c00
0f00
0c00
0c00
0c00
0000
0000
ENDCHAR
STARTCHAR C005
ENCODING 5
SWIDTH 878 0
DWIDTH 10 0
BBX 10 20 0 -5
BITMAP
0000
0000
0000
0000
3c00
6600
6000
6000
6600
3c00
0000
1f00
1980
1980
1f00
1e00
1b00
1980
0000
0000
ENDCHAR
STARTCHAR C006
ENCODING 6
SWIDTH 878 0
DWIDTH 10 0
BBX 10 20 0 -5
BITMAP
0000
0000
0000
0000
3000
3000
3000
3000
3000
3e00
0000
0f80
0c00
0c00
0f00
0c00
0c00
0c00
0000
0000
ENDCHAR
STARTCHAR C007
ENCODING 7
SWIDTH 878 0
DWIDTH 10 0
BBX 10 20 0 -5
BITMAP
0000
0000
1e00
3300
3300
3300
1e00
0000
0000
0000
0000
0000
0000
0000
0000
0000
0000
0000
0000
0000
ENDCHAR
STARTCHAR C010
ENCODING 8
SWIDTH 878 0
DWIDTH 10 0
BBX 10 20 0 -5
BITMAP
0000
0000
0000
0000
0000
0000
0000
0000
0c00
0c00
7f80
0c00
0c00
0000
7f80
0000
0000
0000
0000
0000
ENDCHAR
STARTCHAR C011
ENCODING 9
SWIDTH 878 0
DWIDTH 10 0
BBX 10 20 0 -5
BITMAP
0000
0000
0000
0000
6600
7600
7e00
7e00
6e00
6600
0000
0c00
0c00
0c00
0c00
0c00
0c00
0f80
0000
0000
ENDCHAR
STARTCHAR C012
ENCODING 10
SWIDTH 878 0
DWIDTH 10 0
BBX 10 20 0 -5
BITMAP
0000
0000
0000
0000
6600
6600
6600
3c00
3c00
1800
1800
0000
1f80
0600
0600
0600
0600
0600
0000
0000
ENDCHAR
STARTCHAR C013
ENCODING 11
SWIDTH 878 0
DWIDTH 10 0
BBX 10 20 0 -5
BITMAP
0c00
0c00
0c00
0c00
0c00
0c00
0c00
0c00
0c00
fc00
0000
0000
0000
0000
0000
0000
0000
0000
0000
0000
ENDCHAR
STARTCHAR C014
ENCODING 12
SWIDTH 878 0
DWIDTH 10 0
BBX 10 20 0 -5
BITMAP
0000
0000
0000
0000
0000
0000
0000
0000
0000
fc00
0c00
0c00
0c00
0c00
0c00
0c00
0c00
0c00
0c00
0c00
ENDCHAR
STARTCHAR C015
ENCODING 13
SWIDTH 878 0
DWIDTH 10 0
BBX 10 20 0 -5
BITMAP
0000
0000
0000
0000
0000
0000
0000
0000
0000
0fc0
0c00
0c00
0c00
0c00
0c00
0c00
0c00
0c00
0c00
0c00
ENDCHAR
STARTCHAR C016
ENCODING 14
SWIDTH 878 0
DWIDTH 10 0
BBX 10 20 0 -5
BITMAP
0c00
0c00
0c00
0c00
0c00
0c00
0c00
0c00
0c00
0fc0
0000
0000
0000
0000
0000
0000
0000
0000
0000
0000
ENDCHAR
STARTCHAR C017
ENCODING 15
SWIDTH 878 0
DWIDTH 10 0
BBX 10 20 0 -5
BITMAP
0c00
0c00
0c00
0c00
0c00
0c00
0c00
0c00
0c00
ffc0
0c00
0c00
0c00
0c00
0c00
0c00
0c00
0c00
0c00
0c00
ENDCHAR
STARTCHAR C020
ENCODING 16
SWIDTH 878 0
DWIDTH 10 0
BBX 10 20 0 -5
BITMAP
0000
0000
0000
0000
ffc0
0000
0000
0000
0000
0000
0000
0000
0000
0000
0000
0000
0000
0000
0000
0000
ENDCHAR
STARTCHAR C021
ENCODING 17
SWIDTH 878 0
DWIDTH 10 0
BBX 10 20 0 -5
BITMAP
0000
0000
0000
0000
0000
0000
ffc0
0000
0000
0000
0000
0000
0000
0000
0000
0000
0000
0000
0000
0000
ENDCHAR
STARTCHAR C022
ENCODING 18
SWIDTH 878 0
DWIDTH 10 0
BBX 10 20 0 -5
BITMAP
0000
0000
0000
0000
0000
0000
0000
0000
0000
ffc0
0000
0000
0000
0000
0000
0000
0000
0000
0000
0000
ENDCHAR
STARTCHAR C023
ENCODING 19
SWIDTH 878 0
DWIDTH 10 0
BBX 10 20 0 -5
BITMAP
0000
0000
0000
0000
0000
0000
0000
0000
0000
0000
0000
0000
ffc0
0000
0000
0000
0000
0000
0000
0000
ENDCHAR
STARTCHAR C024
ENCODING 20
SWIDTH 878 0
DWIDTH 10 0
BBX 10 20 0 -5
BITMAP
0000
0000
0000
0000
0000
0000
0000
0000
0000
0000
0000
0000
0000
0000
0000
ffc0
0000
0000
0000
0000
ENDCHAR
STARTCHAR C025
ENCODING 21
SWIDTH 878 0
DWIDTH 10 0
BBX 10 20 0 -5
BITMAP
0c00
0c00
0c00
0c00
0c00
0c00
0c00
0c00
0c00
0fc0
0c00
0c00
0c00
0c00
0c00
0c00
0c00
0c00
0c00
0c00
ENDCHAR
STARTCHAR C026
ENCODING 22
SWIDTH 878 0
DWIDTH 10 0
BBX 10 20 0 -5
BITMAP
0c00
0c00
0c00
0c00
0c00
0c00
0c00
0c00
0c00
fc00
0c00
0c00
0c00
0c00
0c00
0c00
0c00
0c00
0c00
0c00
ENDCHAR
STARTCHAR C027
ENCODING 23
SWIDTH 878 0
DWIDTH 10 0
BBX 10 20 0 -5
BITMAP
0c00
0c00
0c00
0c00
0c00
0c00
0c00
0c00
0c00
ffc0
0000
0000
0000
0000
0000
0000
0000
0000
0000
0000
ENDCHAR
STARTCHAR C030
ENCODING 24
SWIDTH 878 0
DWIDTH 10 0
BBX 10 20 0 -5
BITMAP
0000
0000
0000
0000
0000
0000
0000
0000
0000
ffc0
0c00
0c00
0c00
0c00
0c00
0c00
0c00
0c00
0c00
0c00
ENDCHAR
STARTCHAR C031
ENCODING 25
SWIDTH 878 0
DWIDTH 10 0
BBX 10 20 0 -5
BITMAP
0c00
0c00
0c00
0c00
0c00
0c00
0c00
0c00
0c00
0c00
0c00
0c00
0c00
0c00
0c00
0c00
0c00
0c00
0c00
0c00
ENDCHAR
STARTCHAR C032
ENCODING 26
SWIDTH 878 0
DWIDTH 10 0
BBX 10 20 0 -5
BITMAP
0000
0000
0000
0000
0000
01c0
0700
1c00
7000
1c00
0700
01c0
0000
0000
7fc0
0000
0000
0000
0000
0000
ENDCHAR
STARTCHAR C033
ENCODING 27
SWIDTH 878 0
DWIDTH 10 0
BBX 10 20 0 -5
BITMAP
0000
0000
0000
0000
0000
7000
1c00
0700
01c0
0700
1c00
7000
0000
0000
7fc0
0000
0000
0000
0000
0000
ENDCHAR
STARTCHAR C034
ENCODING 28
SWIDTH 878 0
DWIDTH 10 0
BBX 10 20 0 -5
BITMAP
0000
0000
0000
0000
0000
0000
0000
0080
3f80
5b00
1b00
1b00
1b00
1b00
3300
0000
0000
0000
0000
0000
ENDCHAR
STARTCHAR C035
ENCODING 29
SWIDTH 878 0
DWIDTH 10 0
BBX 10 20 0 -5
BITMAP
0000
0000
0000
0000
0000
0000
0180
0300
7fc0
0600
0c00
7fc0
1800
3000
0000
0000
0000
0000
0000
0000
ENDCHAR
STARTCHAR C036
ENCODING 30
SWIDTH 878 0
DWIDTH 10 0
BBX 10 20 0 -5
BITMAP
0000
0000
0f00
1980
1980
1800
1800
1800
7e00
1800
1800
1800
7c00
56c0
7380
0000
0000
0000
0000
0000
ENDCHAR
STARTCHAR C037
ENCODING 31
SWIDTH 878 0
DWIDTH 10 0
BBX 10 20 0 -5
BITMAP
0000
0000
0000
0000
0000
0000
0000
0000
0c00
0c00
0000
0000
0000
0000
0000
0000
0000
0000
0000
0000
ENDCHAR
STARTCHAR space
ENCODING 32
SWIDTH 878 0
DWIDTH 10 0
BBX 10 20 0 -5
BITMAP
0000
0000
0000
0000
0000
0000
0000
0000
0000
0000
0000
0000
0000
0000
0000
0000
0000
0000
0000
0000
ENDCHAR
STARTCHAR !
ENCODING 33
SWIDTH 878 0
DWIDTH 10 0
BBX 10 20 0 -5
BITMAP
0000
0000
0c00
0c00
0c00
0c00
0c00
0c00
0c00
0c00
0c00
0c00
0000
0c00
0c00
0000
0000
0000
0000
0000
ENDCHAR
STARTCHAR "
ENCODING 34
SWIDTH 878 0
DWIDTH 10 0
BBX 10 20 0 -5
BITMAP
0000
0000
3300
3300
3300
1200
0000
0000
0000
0000
0000
0000
0000
0000
0000
0000
0000
0000
0000
0000
ENDCHAR
STARTCHAR #
ENCODING 35
SWIDTH 878 0
DWIDTH 10 0
BBX 10 20 0 -5
BITMAP
0000
0000
0000
0d80
0d80
0d80
3fc0
1b00
1b00
1b00
7f80
3600
3600
3600
0000
0000
0000
0000
0000
0000
ENDCHAR
STARTCHAR $
ENCODING 36
SWIDTH 878 0
DWIDTH 10 0
BBX 10 20 0 -5
BITMAP
0000
0000
0c00
3f00
6d80
6c00
6c00
6c00
3f00
0d80
0d80
0d80
6d80
3f00
0c00
0000
0000
0000
0000
0000
ENDCHAR
STARTCHAR %
ENCODING 37
SWIDTH 878 0
DWIDTH 10 0
BBX 10 20 0 -5
BITMAP
0000
0000
0000
3980
6d80
6f00
3b00
0600
0600
0c00
0c00
1b80
1ec0
36c0
3380
0000
0000
0000
0000
0000
ENDCHAR
STARTCHAR &
ENCODING 38
SWIDTH 878 0
DWIDTH 10 0
BBX 10 20 0 -5
BITMAP
0000
0000
1c00
3600
3600
3600
3c00
1800
3800
6c00
66c0
6380
6300
7780
3cc0
0000
0000
0000
0000
0000
ENDCHAR
STARTCHAR '
ENCODING 39
SWIDTH 878 0
DWIDTH 10 0
BBX 10 20 0 -5
BITMAP
0000
0000
0f00
0e00
1800
0000
0000
0000
0000
0000
0000
0000
0000
0000
0000
0000
0000
0000
0000
0000
ENDCHAR
STARTCHAR (
ENCODING 40
SWIDTH 878 0
DWIDTH 10 0
BBX 10 20 0 -5
BITMAP
0000
0000
0300
0600
0c00
0c00
1800
1800
1800
1800
1800
0c00
0c00
0600
0300
0000
0000
0000
0000
0000
ENDCHAR
STARTCHAR )
ENCODING 41
SWIDTH 878 0
DWIDTH 10 0
BBX 10 20 0 -5
BITMAP
0000
0000
3000
1800
0c00
0c00
0600
0600
0600
0600
0600
0c00
0c00
1800
3000
0000
0000
0000
0000
0000
ENDCHAR
STARTCHAR *
ENCODING 42
SWIDTH 878 0
DWIDTH 10 0
BBX 10 20 0 -5
BITMAP
0000
0000
0000
0000
0000
3300
3300
1e00
7f80
1e00
3300
3300
0000
0000
0000
0000
0000
0000
0000
0000
ENDCHAR
STARTCHAR +
ENCODING 43
SWIDTH 878 0
DWIDTH 10 0
BBX 10 20 0 -5
BITMAP
0000
0000
0000
0000
0000
0c00
0c00
0c00
7f80
0c00
0c00
0c00
0000
0000
0000
0000
0000
0000
0000
0000
ENDCHAR
STARTCHAR ,
ENCODING 44
SWIDTH 878 0
DWIDTH 10 0
BBX 10 20 0 -5
BITMAP
0000
0000
0000
0000
0000
0000
0000
0000
0000
0000
0000
0000
0000
0e00
0e00
1800
0000
0000
0000
0000
ENDCHAR
STARTCHAR -
ENCODING 45
SWIDTH 878 0
DWIDTH 10 0
BBX 10 20 0 -5
BITMAP
0000
0000
0000
0000
0000
0000
0000
0000
7f80
0000
0000
0000
0000
0000
0000
0000
0000
0000
0000
0000
ENDCHAR
STARTCHAR .
ENCODING 46
SWIDTH 878 0
DWIDTH 10 0
BBX 10 20 0 -5
BITMAP
0000
0000
0000
0000
0000
0000
0000
0000
0000
0000
0000
0000
0e00
0e00
0e00
0000
0000
0000
0000
0000
ENDCHAR
STARTCHAR /
ENCODING 47
SWIDTH 878 0
DWIDTH 10 0
BBX 10 20 0 -5
BITMAP
0000
0000
0000
0180
0180
0300
0300
0600
0600
0c00
0c00
1800
1800
3000
3000
0000
0000
0000
0000
0000
ENDCHAR
STARTCHAR 0
ENCODING 48
SWIDTH 878 0
DWIDTH 10 0
BBX 10 20 0 -5
BITMAP
0000
0000
0c00
1e00
3300
3300
6180
6180
6180
6180
6180
3300
3300
1e00
0c00
0000
0000
0000
0000
0000
ENDCHAR
STARTCHAR 1
ENCODING 49
SWIDTH 878 0
DWIDTH 10 0
BBX 10 20 0 -5
BITMAP
0000
0000
0c00
1c00
3c00
6c00
0c00
0c00
0c00
0c00
0c00
0c00
0c00
0c00
7f80
0000
0000
0000
0000
0000
ENDCHAR
STARTCHAR 2
ENCODING 50
SWIDTH 878 0
DWIDTH 10 0
BBX 10 20 0 -5
BITMAP
0000
0000
1e00
3300
6180
6180
0180
0180
0300
0e00
1800
3000
6000
6000
7f80
0000
0000
0000
0000
0000
ENDCHAR
STARTCHAR 3
ENCODING 51
SWIDTH 878 0
DWIDTH 10 0
BBX 10 20 0 -5
BITMAP
0000
0000
1e00
3300
6180
6180
0180
0300
0e00
0300
0180
6180
6180
3300
1e00
0000
0000
0000
0000
0000
ENDCHAR
STARTCHAR 4
ENCODING 52
SWIDTH 878 0
DWIDTH 10 0
BBX 10 20 0 -5
BITMAP
0000
0000
0100
0300
0700
0f00
1b00
3300
6300
6300
7f80
0300
0300
0300
0300
0000
0000
0000
0000
0000
ENDCHAR
STARTCHAR 5
ENCODING 53
SWIDTH 878 0
DWIDTH 10 0
BBX 10 20 0 -5
BITMAP
0000
0000
7f80
6000
6000
6000
6000
6e00
7300
0180
0180
0180
6180
3300
1e00
0000
0000
0000
0000
0000
ENDCHAR
STARTCHAR 6
ENCODING 54
SWIDTH 878 0
DWIDTH 10 0
BBX 10 20 0 -5
BITMAP
0000
0000
1e00
3300
6100
6000
6000
6e00
7300
6180
6180
6180
6180
3300
1e00
0000
0000
0000
0000
0000
ENDCHAR
STARTCHAR 7
ENCODING 55
SWIDTH 878 0
DWIDTH 10 0
BBX 10 20 0 -5
BITMAP
0000
0000
7f80
0180
0180
0300
0300
0600
0600
0c00
0c00
1800
1800
3000
3000
0000
0000
0000
0000
0000
ENDCHAR
STARTCHAR 8
ENCODING 56
SWIDTH 878 0
DWIDTH 10 0
BBX 10 20 0 -5
BITMAP
0000
0000
1e00
3300
6180
6180
6180
3300
1e00
3300
6180
6180
6180
3300
1e00
0000
0000
0000
0000
0000
ENDCHAR
STARTCHAR 9
ENCODING 57
SWIDTH 878 0
DWIDTH 10 0
BBX 10 20 0 -5
BITMAP
0000
0000
1e00
3300
6180
6180
6180
6180
3380
1d80
0180
0180
2180
3300
1e00
0000
0000
0000
0000
0000
ENDCHAR
STARTCHAR :
ENCODING 58
SWIDTH 878 0
DWIDTH 10 0
BBX 10 20 0 -5
BITMAP
0000
0000
0000
0000
0000
0e00
0e00
0000
0000
0000
0000
0e00
0e00
0000
0000
0000
0000
0000
0000
0000
ENDCHAR
STARTCHAR ;
ENCODING 59
SWIDTH 878 0
DWIDTH 10 0
BBX 10 20 0 -5
BITMAP
0000
0000
0000
0000
0000
0e00
0e00
0000
0000
0000
0000
0e00
0e00
1c00
0000
0000
0000
0000
0000
0000
ENDCHAR
STARTCHAR <
ENCODING 60
SWIDTH 878 0
DWIDTH 10 0
BBX 10 20 0 -5
BITMAP
0000
0000
0100
0300
0600
0c00
1800
3000
6000
3000
1800
0c00
0600
0300
0100
0000
0000
0000
0000
0000
ENDCHAR
STARTCHAR =
ENCODING 61
SWIDTH 878 0
DWIDTH 10 0
BBX 10 20 0 -5
BITMAP
0000
0000
0000
0000
0000
0000
7f80
0000
0000
0000
0000
7f80
0000
0000
0000
0000
0000
0000
0000
0000
ENDCHAR
STARTCHAR >
ENCODING 62
SWIDTH 878 0
DWIDTH 10 0
BBX 10 20 0 -5
BITMAP
0000
0000
2000
3000
1800
0c00
0600
0300
0180
0300
0600
0c00
1800
3000
2000
0000
0000
0000
0000
0000
ENDCHAR
STARTCHAR ?
ENCODING 63
SWIDTH 878 0
DWIDTH 10 0
BBX 10 20 0 -5
BITMAP
0000
0000
1e00
3300
6180
6180
6180
0300
0600
0c00
0c00
0c00
0000
0c00
0c00
0000
0000
0000
0000
0000
ENDCHAR
STARTCHAR @
ENCODING 64
SWIDTH 878 0
DWIDTH 10 0
BBX 10 20 0 -5
BITMAP
0000
0000
1e00
3300
6180
6780
6f80
6d80
6d80
6d80
6f00
6600
6000
3180
1f00
0000
0000
0000
0000
0000
ENDCHAR
STARTCHAR A
ENCODING 65
SWIDTH 878 0
DWIDTH 10 0
BBX 10 20 0 -5
BITMAP
0000
0000
0c00
1e00
3300
3300
6180
6180
6180
7f80
6180
6180
6180
6180
6180
0000
0000
0000
0000
0000
ENDCHAR
STARTCHAR B
ENCODING 66
SWIDTH 878 0
DWIDTH 10 0
BBX 10 20 0 -5
BITMAP
0000
0000
7c00
6600
6300
6300
6300
6600
7e00
6300
6180
6180
6180
6300
7e00
0000
0000
0000
0000
0000
ENDCHAR
STARTCHAR C
ENCODING 67
SWIDTH 878 0
DWIDTH 10 0
BBX 10 20 0 -5
BITMAP
0000
0000
1e00
3300
6180
6000
6000
6000
6000
6000
6000
6000
6180
3300
1e00
0000
0000
0000
0000
0000
ENDCHAR
STARTCHAR D
ENCODING 68
SWIDTH 878 0
DWIDTH 10 0
BBX 10 20 0 -5
BITMAP
0000
0000
7e00
6300
6180
6180
6180
6180
6180
6180
6180
6180
6180
6300
7e00
0000
0000
0000
0000
0000
ENDCHAR
STARTCHAR E
ENCODING 69
SWIDTH 878 0
DWIDTH 10 0
BBX 10 20 0 -5
BITMAP
0000
0000
7f80
6000
6000
6000
6000
6000
7e00
6000
6000
6000
6000
6000
7f80
0000
0000
0000
0000
0000
ENDCHAR
STARTCHAR F
ENCODING 70
SWIDTH 878 0
DWIDTH 10 0
BBX 10 20 0 -5
BITMAP
0000
0000
7f80
6000
6000
6000
6000
6000
7e00
6000
6000
6000
6000
6000
6000
0000
0000
0000
0000
0000
ENDCHAR
STARTCHAR G
ENCODING 71
SWIDTH 878 0
DWIDTH 10 0
BBX 10 20 0 -5
BITMAP
0000
0000
1e00
3300
6180
6000
6000
6000
6780
6180
6180
6180
6180
3380
1e80
0000
0000
0000
0000
0000
ENDCHAR
STARTCHAR H
ENCODING 72
SWIDTH 878 0
DWIDTH 10 0
BBX 10 20 0 -5
BITMAP
0000
0000
6180
6180
6180
6180
6180
6180
7f80
6180
6180
6180
6180
6180
6180
0000
0000
0000
0000
0000
ENDCHAR
STARTCHAR I
ENCODING 73
SWIDTH 878 0
DWIDTH 10 0
BBX 10 20 0 -5
BITMAP
0000
0000
7f80
0c00
0c00
0c00
0c00
0c00
0c00
0c00
0c00
0c00
0c00
0c00
7f80
0000
0000
0000
0000
0000
ENDCHAR
STARTCHAR J
ENCODING 74
SWIDTH 878 0
DWIDTH 10 0
BBX 10 20 0 -5
BITMAP
0000
0000
0f80
0180
0180
0180
0180
0180
0180
0180
0180
6180
6180
3300
1e00
0000
0000
0000
0000
0000
ENDCHAR
STARTCHAR K
ENCODING 75
SWIDTH 878 0
DWIDTH 10 0
BBX 10 20 0 -5
BITMAP
0000
0000
6180
6180
6300
6300
6600
6600
7c00
6600
6600
6300
6300
6180
6180
0000
0000
0000
0000
0000
ENDCHAR
STARTCHAR L
ENCODING 76
SWIDTH 878 0
DWIDTH 10 0
BBX 10 20 0 -5
BITMAP
0000
0000
6000
6000
6000
6000
6000
6000
6000
6000
6000
6000
6000
6000
7f80
0000
0000
0000
0000
0000
ENDCHAR
STARTCHAR M
ENCODING 77
SWIDTH 878 0
DWIDTH 10 0
BBX 10 20 0 -5
BITMAP
0000
0000
6180
6180
7380
7380
7f80
6d80
6d80
6d80
6d80
6180
6180
6180
6180
0000
0000
0000
0000
0000
ENDCHAR
STARTCHAR N
ENCODING 78
SWIDTH 878 0
DWIDTH 10 0
BBX 10 20 0 -5
BITMAP
0000
0000
6180
7180
7180
7980
7980
6d80
6d80
6780
6780
6380
6380
6180
6180
0000
0000
0000
0000
0000
ENDCHAR
STARTCHAR O
ENCODING 79
SWIDTH 878 0
DWIDTH 10 0
BBX 10 20 0 -5
BITMAP
0000
0000
1e00
3300
6180
6180
6180
6180
6180
6180
6180
6180
6180
3300
1e00
0000
0000
0000
0000
0000
ENDCHAR
STARTCHAR P
ENCODING 80
SWIDTH 878 0
DWIDTH 10 0
BBX 10 20 0 -5
BITMAP
0000
0000
7e00
6300
6180
6180
6180
6180
6300
7e00
6000
6000
6000
6000
6000
0000
0000
0000
0000
0000
ENDCHAR
STARTCHAR Q
ENCODING 81
SWIDTH 878 0
DWIDTH 10 0
BBX 10 20 0 -5
BITMAP
0000
0000
1e00
3300
6180
6180
6180
6180
6180
6180
6180
6d80
6780
3300
1f00
0180
0000
0000
0000
0000
ENDCHAR
STARTCHAR R
ENCODING 82
SWIDTH 878 0
DWIDTH 10 0
BBX 10 20 0 -5
BITMAP
0000
0000
7e00
6300
6180
6180
6180
6180
6300
7e00
6600
6300
6300
6180
6180
0000
0000
0000
0000
0000
ENDCHAR
STARTCHAR S
ENCODING 83
SWIDTH 878 0
DWIDTH 10 0
BBX 10 20 0 -5
BITMAP
0000
0000
1e00
3300
6180
6000
6000
3000
1e00
0300
0180
0180
6180
3300
1e00
0000
0000
0000
0000
0000
ENDCHAR
STARTCHAR T
ENCODING 84
SWIDTH 878 0
DWIDTH 10 0
BBX 10 20 0 -5
BITMAP
0000
0000
7f80
0c00
0c00
0c00
0c00
0c00
0c00
0c00
0c00
0c00
0c00
0c00
0c00
0000
0000
0000
0000
0000
ENDCHAR
STARTCHAR U
ENCODING 85
SWIDTH 878 0
DWIDTH 10 0
BBX 10 20 0 -5
BITMAP
0000
0000
6180
6180
6180
6180
6180
6180
6180
6180
6180
6180
6180
3300
1e00
0000
0000
0000
0000
0000
ENDCHAR
STARTCHAR V
ENCODING 86
SWIDTH 878 0
DWIDTH 10 0
BBX 10 20 0 -5
BITMAP
0000
0000
6180
6180
6180
6180
3300
3300
3300
1e00
1e00
1e00
0c00
0c00
0c00
0000
0000
0000
0000
0000
ENDCHAR
STARTCHAR W
ENCODING 87
SWIDTH 878 0
DWIDTH 10 0
BBX 10 20 0 -5
BITMAP
0000
0000
6180
6180
6180
6180
6180
6d80
6d80
6d80
6d80
7380
7380
6180
6180
0000
0000
0000
0000
0000
ENDCHAR
STARTCHAR X
ENCODING 88
SWIDTH 878 0
DWIDTH 10 0
BBX 10 20 0 -5
BITMAP
0000
0000
6180
6180
3300
3300
1e00
1e00
0c00
1e00
1e00
3300
3300
6180
6180
0000
0000
0000
0000
0000
ENDCHAR
STARTCHAR Y
ENCODING 89
SWIDTH 878 0
DWIDTH 10 0
BBX 10 20 0 -5
BITMAP
0000
0000
6180
6180
3300
3300
1e00
1e00
0c00
0c00
0c00
0c00
0c00
0c00
0c00
0000
0000
0000
0000
0000
ENDCHAR
STARTCHAR Z
ENCODING 90
SWIDTH 878 0
DWIDTH 10 0
BBX 10 20 0 -5
BITMAP
0000
0000
7f80
0180
0180
0300
0600
0600
0c00
1800
1800
3000
6000
6000
7f80
0000
0000
0000
0000
0000
ENDCHAR
STARTCHAR [
ENCODING 91
SWIDTH 878 0
DWIDTH 10 0
BBX 10 20 0 -5
BITMAP
0000
0000
3f00
3000
3000
3000
3000
3000
3000
3000
3000
3000
3000
3000
3f00
0000
0000
0000
0000
0000
ENDCHAR
STARTCHAR \
ENCODING 92
SWIDTH 878 0
DWIDTH 10 0
BBX 10 20 0 -5
BITMAP
0000
0000
0000
3000
3000
1800
1800
0c00
0c00
0600
0600
0300
0300
0180
0180
0000
0000
0000
0000
0000
ENDCHAR
STARTCHAR ]
ENCODING 93
SWIDTH 878 0
DWIDTH 10 0
BBX 10 20 0 -5
BITMAP
0000
0000
3f00
0300
0300
0300
0300
0300
0300
0300
0300
0300
0300
0300
3f00
0000
0000
0000
0000
0000
ENDCHAR
STARTCHAR ^
ENCODING 94
SWIDTH 878 0
DWIDTH 10 0
BBX 10 20 0 -5
BITMAP
0000
0000
0c00
1e00
3300
6180
0000
0000
0000
0000
0000
0000
0000
0000
0000
0000
0000
0000
0000
0000
ENDCHAR
STARTCHAR _
ENCODING 95
SWIDTH 878 0
DWIDTH 10 0
BBX 10 20 0 -5
BITMAP
0000
0000
0000
0000
0000
0000
0000
0000
0000
0000
0000
0000
0000
0000
0000
7fc0
0000
0000
0000
0000
ENDCHAR
STARTCHAR `
ENCODING 96
SWIDTH 878 0
DWIDTH 10 0
BBX 10 20 0 -5
BITMAP
0000
0000
3c00
1c00
0600
0000
0000
0000
0000
0000
0000
0000
0000
0000
0000
0000
0000
0000
0000
0000
ENDCHAR
STARTCHAR a
ENCODING 97
SWIDTH 878 0
DWIDTH 10 0
BBX 10 20 0 -5
BITMAP
0000
0000
0000
0000
0000
0000
0000
1f00
3180
0180
3f80
6180
6180
6180
3e80
0000
0000
0000
0000
0000
ENDCHAR
STARTCHAR b
ENCODING 98
SWIDTH 878 0
DWIDTH 10 0
BBX 10 20 0 -5
BITMAP
0000
0000
6000
6000
6000
6000
6000
6e00
7300
6180
6180
6180
6180
7300
6e00
0000
0000
0000
0000
0000
ENDCHAR
STARTCHAR c
ENCODING 99
SWIDTH 878 0
DWIDTH 10 0
BBX 10 20 0 -5
BITMAP
0000
0000
0000
0000
0000
0000
0000
1f00
3180
6000
6000
6000
6000
3180
1f00
0000
0000
0000
0000
0000
ENDCHAR
STARTCHAR d
ENCODING 100
SWIDTH 878 0
DWIDTH 10 0
BBX 10 20 0 -5
BITMAP
0000
0000
0180
0180
0180
0180
0180
1d80
3380
6180
6180
6180
6180
3380
1d80
0000
0000
0000
0000
0000
ENDCHAR
STARTCHAR e
ENCODING 101
SWIDTH 878 0
DWIDTH 10 0
BBX 10 20 0 -5
BITMAP
0000
0000
0000
0000
0000
0000
0000
1e00
3300
6180
7f80
6000
6000
3180
1f00
0000
0000
0000
0000
0000
ENDCHAR
STARTCHAR f
ENCODING 102
SWIDTH 878 0
DWIDTH 10 0
BBX 10 20 0 -5
BITMAP
0000
0000
0f00
1980
1980
1800
1800
1800
1800
7e00
1800
1800
1800
1800
1800
0000
0000
0000
0000
0000
ENDCHAR
STARTCHAR g
ENCODING 103
SWIDTH 878 0
DWIDTH 10 0
BBX 10 20 0 -5
BITMAP
0000
0000
0000
0000
0000
0000
0000
3e80
6380
6300
6300
6300
3e00
6000
3f00
6180
6180
6180
3f00
0000
ENDCHAR
STARTCHAR h
ENCODING 104
SWIDTH 878 0
DWIDTH 10 0
BBX 10 20 0 -5
BITMAP
0000
0000
6000
6000
6000
6000
6000
6e00
7300
6180
6180
6180
6180
6180
6180
0000
0000
0000
0000
0000
ENDCHAR
STARTCHAR i
ENCODING 105
SWIDTH 878 0
DWIDTH 10 0
BBX 10 20 0 -5
BITMAP
0000
0000
0000
0000
0c00
0c00
0000
3c00
0c00
0c00
0c00
0c00
0c00
0c00
7f80
0000
0000
0000
0000
0000
ENDCHAR
STARTCHAR j
ENCODING 106
SWIDTH 878 0
DWIDTH 10 0
BBX 10 20 0 -5
BITMAP
0000
0000
0000
0000
0180
0180
0000
0780
0180
0180
0180
0180
0180
0180
0180
3180
3180
3180
1f00
0000
ENDCHAR
STARTCHAR k
ENCODING 107
SWIDTH 878 0
DWIDTH 10 0
BBX 10 20 0 -5
BITMAP
0000
0000
6000
6000
6000
6000
6000
6300
6600
6c00
7800
7c00
6600
6300
6180
0000
0000
0000
0000
0000
ENDCHAR
STARTCHAR l
ENCODING 108
SWIDTH 878 0
DWIDTH 10 0
BBX 10 20 0 -5
BITMAP
0000
0000
3c00
0c00
0c00
0c00
0c00
0c00
0c00
0c00
0c00
0c00
0c00
0c00
7f80
0000
0000
0000
0000
0000
ENDCHAR
STARTCHAR m
ENCODING 109
SWIDTH 878 0
DWIDTH 10 0
BBX 10 20 0 -5
BITMAP
0000
0000
0000
0000
0000
0000
0000
5b00
7f80
6d80
6d80
6d80
6d80
6d80
6d80
0000
0000
0000
0000
0000
ENDCHAR
STARTCHAR n
ENCODING 110
SWIDTH 878 0
DWIDTH 10 0
BBX 10 20 0 -5
BITMAP
0000
0000
0000
0000
0000
0000
0000
6e00
7300
6180
6180
6180
6180
6180
6180
0000
0000
0000
0000
0000
ENDCHAR
STARTCHAR o
ENCODING 111
SWIDTH 878 0
DWIDTH 10 0
BBX 10 20 0 -5
BITMAP
0000
0000
0000
0000
0000
0000
0000
1e00
3300
6180
6180
6180
6180
3300
1e00
0000
0000
0000
0000
0000
ENDCHAR
STARTCHAR p
ENCODING 112
SWIDTH 878 0
DWIDTH 10 0
BBX 10 20 0 -5
BITMAP
0000
0000
0000
0000
0000
0000
0000
6e00
7300
6180
6180
6180
6180
7300
6e00
6000
6000
6000
6000
0000
ENDCHAR
STARTCHAR q
ENCODING 113
SWIDTH 878 0
DWIDTH 10 0
BBX 10 20 0 -5
BITMAP
0000
0000
0000
0000
0000
0000
0000
1d80
3380
6180
6180
6180
6180
3380
1d80
0180
0180
0180
0180
0000
ENDCHAR
STARTCHAR r
ENCODING 114
SWIDTH 878 0
DWIDTH 10 0
BBX 10 20 0 -5
BITMAP
0000
0000
0000
0000
0000
0000
0000
6f00
3980
3000
3000
3000
3000
3000
3000
0000
0000
0000
0000
0000
ENDCHAR
STARTCHAR s
ENCODING 115
SWIDTH 878 0
DWIDTH 10 0
BBX 10 20 0 -5
BITMAP
0000
0000
0000
0000
0000
0000
0000
3f00
6180
6000
3f00
0180
0180
6180
3f00
0000
0000
0000
0000
0000
ENDCHAR
STARTCHAR t
ENCODING 116
SWIDTH 878 0
DWIDTH 10 0
BBX 10 20 0 -5
BITMAP
0000
0000
0000
0000
1800
1800
1800
7e00
1800
1800
1800
1800
1800
1980
0f00
0000
0000
0000
0000
0000
ENDCHAR
STARTCHAR u
ENCODING 117
SWIDTH 878 0
DWIDTH 10 0
BBX 10 20 0 -5
BITMAP
0000
0000
0000
0000
0000
0000
0000
6180
6180
6180
6180
6180
6180
3380
1d80
0000
0000
0000
0000
0000
ENDCHAR
STARTCHAR v
ENCODING 118
SWIDTH 878 0
DWIDTH 10 0
BBX 10 20 0 -5
BITMAP
0000
0000
0000
0000
0000
0000
0000
6180
6180
3300
3300
1e00
1e00
0c00
0c00
0000
0000
0000
0000
0000
ENDCHAR
STARTCHAR w
ENCODING 119
SWIDTH 878 0
DWIDTH 10 0
BBX 10 20 0 -5
BITMAP
0000
0000
0000
0000
0000
0000
0000
6180
6180
6180
6d80
6d80
6d80
7f80
3300
0000
0000
0000
0000
0000
ENDCHAR
STARTCHAR x
ENCODING 120
SWIDTH 878 0
DWIDTH 10 0
BBX 10 20 0 -5
BITMAP
0000
0000
0000
0000
0000
0000
0000
6180
3300
1e00
0c00
0c00
1e00
3300
6180
0000
0000
0000
0000
0000
ENDCHAR
STARTCHAR y
ENCODING 121
SWIDTH 878 0
DWIDTH 10 0
BBX 10 20 0 -5
BITMAP
0000
0000
0000
0000
0000
0000
0000
6180
6180
6180
6180
6180
6180
3380
1d80
0180
6180
3300
1e00
0000
ENDCHAR
STARTCHAR z
ENCODING 122
SWIDTH 878 0
DWIDTH 10 0
BBX 10 20 0 -5
BITMAP
0000
0000
0000
0000
0000
0000
0000
3f80
0180
0300
0600
0c00
1800
3000
3f80
0000
0000
0000
0000
0000
ENDCHAR
STARTCHAR {
ENCODING 123
SWIDTH 878 0
DWIDTH 10 0
BBX 10 20 0 -5
BITMAP
0000
0000
0780
0c00
0c00
0c00
0c00
0c00
7800
0c00
0c00
0c00
0c00
0c00
0780
0000
0000
0000
0000
0000
ENDCHAR
STARTCHAR bar
ENCODING 124
SWIDTH 878 0
DWIDTH 10 0
BBX 10 20 0 -5
BITMAP
0000
0000
0c00
0c00
0c00
0c00
0c00
0c00
0c00
0c00
0c00
0c00
0c00
0c00
0c00
0000
0000
0000
0000
0000
ENDCHAR
STARTCHAR }
ENCODING 125
SWIDTH 878 0
DWIDTH 10 0
BBX 10 20 0 -5
BITMAP
0000
0000
7800
0c00
0c00
0c00
0c00
0c00
0780
0c00
0c00
0c00
0c00
0c00
7800
0000
0000
0000
0000
0000
ENDCHAR
STARTCHAR ~
ENCODING 126
SWIDTH 878 0
DWIDTH 10 0
BBX 10 20 0 -5
BITMAP
0000
0000
3980
6d80
6700
0000
0000
0000
0000
0000
0000
0000
0000
0000
0000
0000
0000
0000
0000
0000
ENDCHAR
STARTCHAR C177
ENCODING 127
SWIDTH 878 0
DWIDTH 10 0
BBX 10 20 0 -5
BITMAP
0000
0000
0000
0000
0000
0000
0000
0000
0000
0000
0000
0000
0000
0000
0000
0000
0000
0000
0000
0000
ENDCHAR
STARTCHAR doorway
ENCODING 128
SWIDTH 878 0
DWIDTH 10 0
BBX 10 20 0 -5
BITMAP
0000
0000
0000
0000
0000
0000
0000
0000
1e00
1200
1200
1e00
0000
0000
0000
0000
0000
0000
0000
0000
ENDCHAR
STARTCHAR vodoor
ENCODING 129
SWIDTH 878 0
DWIDTH 10 0
BBX 10 20 0 -5
BITMAP
0c00
0c00
0c00
0c00
0c00
0c00
0000
0000
0000
7f80
7f80
0000
0000
0000
0c00
0c00
0c00
0c00
0c00
0c00
ENDCHAR
STARTCHAR codoor
ENCODING 130
SWIDTH 878 0
DWIDTH 10 0
BBX 10 20 0 -5
BITMAP
0000
0000
0000
0000
0000
0000
0c00
0c00
0c00
8c40
8c40
0c00
0c00
0c00
0000
0000
0000
0000
0000
0000
ENDCHAR
STARTCHAR vcdoor
ENCODING 131
SWIDTH 878 0
DWIDTH 10 0
BBX 10 20 0 -5
BITMAP
0c00
0c00
0c00
0c00
0c00
0c00
3300
2100
2100
2100
2100
2100
2100
3300
0c00
0c00
0c00
0c00
0c00
0c00
ENDCHAR
STARTCHAR hcdoor
ENCODING 132
SWIDTH 878 0
DWIDTH 10 0
BBX 10 20 0 -5
BITMAP
0000
0000
0000
0000
0000
0000
0000
7f80
4080
8040
8040
4080
7f80
0000
0000
0000
0000
0000
0000
0000
ENDCHAR
STARTCHAR room
ENCODING 133
SWIDTH 878 0
DWIDTH 10 0
BBX 10 20 0 -5
BITMAP
0000
0000
0000
0000
0000
0000
0000
0000
0000
0c00
0c00
0000
0000
0000
0000
0000
0000
0000
0000
0000
ENDCHAR
STARTCHAR dark corridor
ENCODING 134
SWIDTH 878 0
DWIDTH 10 0
BBX 10 20 0 -5
BITMAP
4440
1100
4440
1100
4440
1100
4440
1100
4440
1100
4440
1100
4440
1100
4440
1100
4440
1100
4440
1100
ENDCHAR
STARTCHAR lit corridor
ENCODING 135
SWIDTH 878 0
DWIDTH 10 0
BBX 10 20 0 -5
BITMAP
5540
aa80
5540
aa80
5540
aa80
5540
aa80
5540
aa80
5540
aa80
5540
aa80
5540
aa80
5540
aa80
5540
aa80
ENDCHAR
STARTCHAR upstair
ENCODING 136
SWIDTH 878 0
DWIDTH 10 0
BBX 10 20 0 -5
BITMAP
0000
0000
0000
0000
0100
0200
0400
0800
1000
2000
1000
0800
0400
0200
0100
0000
0000
0000
0000
0000
ENDCHAR
STARTCHAR dnstair
ENCODING 137
SWIDTH 878 0
DWIDTH 10 0
BBX 10 20 0 -5
BITMAP
0000
0000
0000
0000
2000
1000
0800
0400
0200
0100
0200
0400
0800
1000
2000
0000
0000
0000
0000
0000
ENDCHAR
STARTCHAR trap
ENCODING 138
SWIDTH 878 0
DWIDTH 10 0
BBX 10 20 0 -5
BITMAP
0000
0000
0000
0000
ffc0
c0c0
e1c0
b340
9e40
8c40
9e40
b340
e1c0
c0c0
ffc0
0000
0000
0000
0000
0000
ENDCHAR
STARTCHAR web
ENCODING 139
SWIDTH 878 0
DWIDTH 10 0
BBX 10 20 0 -5
BITMAP
4980
f900
4f00
c9c0
9940
9300
f240
9e40
9340
32c0
a640
fcc0
2f80
2580
e4c0
ec80
7f80
4bc0
4940
c900
ENDCHAR
STARTCHAR pool
ENCODING 140
SWIDTH 878 0
DWIDTH 10 0
BBX 10 20 0 -5
BITMAP
b6c0
0000
2480
db40
0000
9240
6d80
0000
4900
b6c0
0000
2480
db40
0000
9240
6d80
0000
4900
b6c0
0000
ENDCHAR
STARTCHAR fountain
ENCODING 141
SWIDTH 878 0
DWIDTH 10 0
BBX 10 20 0 -5
BITMAP
0000
0000
0000
1000
0a00
4200
0c00
3000
0280
6800
0100
4800
2900
4800
0900
9c00
1400
ff80
ff80
ff80
ENDCHAR
STARTCHAR sink
ENCODING 142
SWIDTH 878 0
DWIDTH 10 0
BBX 10 20 0 -5
BITMAP
0000
0000
0000
0000
0000
0000
0000
0000
0000
0000
0000
0000
0000
2100
2100
2100
2100
1e00
1e00
1200
ENDCHAR
STARTCHAR throne
ENCODING 143
SWIDTH 878 0
DWIDTH 10 0
BBX 10 20 0 -5
BITMAP
0000
0000
0000
0000
0000
0000
0000
0000
0100
0100
0100
0100
0100
1f00
0900
0900
3f00
2100
2100
ffc0
ENDCHAR
STARTCHAR altar
ENCODING 144
SWIDTH 878 0
DWIDTH 10 0
BBX 10 20 0 -5
BITMAP
0000
0000
0000
0000
0000
0000
0000
0000
0000
0000
0000
0000
0000
0000
7f80
7f80
3300
3300
3300
3300
ENDCHAR
STARTCHAR up ladder
ENCODING 145
SWIDTH 878 0
DWIDTH 10 0
BBX 10 20 0 -5
BITMAP
9000
f000
9000
9000
f000
9100
9380
f540
9100
9100
f100
9100
9100
f000
9000
9000
f000
9000
9000
f000
ENDCHAR
STARTCHAR down ladder
ENCODING 146
SWIDTH 878 0
DWIDTH 10 0
BBX 10 20 0 -5
BITMAP
9000
f000
9000
9000
f000
9100
9100
f100
9100
9100
f540
9380
9100
f000
9000
9000
f000
9000
9000
f000
ENDCHAR
STARTCHAR dbvwall
ENCODING 147
SWIDTH 878 0
DWIDTH 10 0
BBX 10 20 0 -5
BITMAP
0c00
0c00
0c00
0c00
0c00
3f00
3f00
3f00
3f00
3f00
3f00
3f00
3f00
3f00
3f00
0c00
0c00
0c00
0c00
0c00
ENDCHAR
STARTCHAR dbhwall
ENCODING 148
SWIDTH 878 0
DWIDTH 10 0
BBX 10 20 0 -5
BITMAP
0000
0000
0000
0000
0000
0000
0000
3f00
3f00
ffc0
ffc0
3f00
3f00
0000
0000
0000
0000
0000
0000
0000
ENDCHAR
STARTCHAR ice
ENCODING 149
SWIDTH 878 0
DWIDTH 10 0
BBX 10 20 0 -5
BITMAP
0000
0000
0000
0000
0000
0000
0000
0000
1200
0c00
0c00
1200
0000
0000
0000
0000
0000
0000
0000
0000
ENDCHAR
STARTCHAR lava
ENCODING 150
SWIDTH 878 0
DWIDTH 10 0
BBX 10 20 0 -5
BITMAP
0000
0000
0000
0000
8800
0480
0080
3700
1300
9900
0940
4140
0840
2900
8900
a840
4540
ffc0
ffc0
ffc0
ENDCHAR
STARTCHAR vbeam
ENCODING 151
SWIDTH 878 0
DWIDTH 10 0
BBX 10 20 0 -5
BITMAP
0800
0800
0e00
0400
0800
1000
2000
1000
0800
0800
0800
0800
0400
0200
0400
0800
1000
3000
0800
0800
ENDCHAR
STARTCHAR hbeam
ENCODING 152
SWIDTH 878 0
DWIDTH 10 0
BBX 10 20 0 -5
BITMAP
0000
0000
0000
0000
0000
0000
0000
2000
3000
e8c0
0500
0200
0000
0000
0000
0000
0000
0000
0000
0000
ENDCHAR
STARTCHAR lslant
ENCODING 153
SWIDTH 878 0
DWIDTH 10 0
BBX 10 20 0 -5
BITMAP
8000
4000
4000
4000
3000
0800
0800
0800
0800
0800
0800
0400
0400
0200
0200
0200
0200
0200
0180
0040
ENDCHAR
STARTCHAR rslant
ENCODING 154
SWIDTH 878 0
DWIDTH 10 0
BBX 10 20 0 -5
BITMAP
0040
0080
0080
0080
0080
0080
0300
0400
0400
0400
0800
0800
1000
2000
4000
4000
4000
4000
4000
8000
ENDCHAR
STARTCHAR dig beam
ENCODING 155
SWIDTH 878 0
DWIDTH 10 0
BBX 10 20 0 -5
BITMAP
8040
4080
2100
1200
0c00
0c00
1200
2100
4080
8040
8040
4080
2100
1200
0c00
0c00
1200
2100
4080
8040
ENDCHAR
STARTCHAR camera flash
ENCODING 156
SWIDTH 878 0
DWIDTH 10 0
BBX 10 20 0 -5
BITMAP
4200
0600
6400
0100
0940
4840
0400
2100
1e00
5ec0
1e80
1e00
2500
5440
2000
0d80
2840
c000
9280
0040
ENDCHAR
STARTCHAR boomerang left
ENCODING 157
SWIDTH 878 0
DWIDTH 10 0
BBX 10 20 0 -5
BITMAP
0000
0000
0000
0000
0000
3000
2800
1400
0a00
0500
0300
0500
0a00
1400
2800
3000
0000
0000
0000
0000
ENDCHAR
STARTCHAR boomerang right
ENCODING 158
SWIDTH 878 0
DWIDTH 10 0
BBX 10 20 0 -5
BITMAP
0000
0000
0000
0000
0000
0300
0500
0a00
1400
2800
3000
2800
1400
0a00
0500
0300
0000
0000
0000
0000
ENDCHAR
STARTCHAR shield 1
ENCODING 159
SWIDTH 878 0
DWIDTH 10 0
BBX 10 20 0 -5
BITMAP
0200
76c0
fa40
8a00
4680
f900
ea00
e7c0
ddc0
5480
3100
b300
e8c0
4cc0
6c00
6300
4480
a180
1400
0780
ENDCHAR
STARTCHAR shield 2
ENCODING 160
SWIDTH 878 0
DWIDTH 10 0
BBX 10 20 0 -5
BITMAP
0000
6100
b340
0040
08c0
77c0
d240
b980
8380
a100
2700
4c40
31c0
bf40
c200
ca00
3380
4180
1b80
0780
ENDCHAR
STARTCHAR shield 3
ENCODING 161
SWIDTH 878 0
DWIDTH 10 0
BBX 10 20 0 -5
BITMAP
d000
0600
5e80
4e80
4c80
2000
2800
3e80
5f80
e640
5080
47c0
8380
c880
a940
9840
0dc0
1300
6080
3200
ENDCHAR
STARTCHAR shield 4
ENCODING 162
SWIDTH 878 0
DWIDTH 10 0
BBX 10 20 0 -5
BITMAP
4200
d480
95c0
1c40
3c80
9b80
2d80
5280
5900
5400
6500
0680
2780
9c80
af80
2180
6080
2340
4580
3100
ENDCHAR
STARTCHAR swallow top left
ENCODING 163
SWIDTH 878 0
DWIDTH 10 0
BBX 10 20 0 -5
BITMAP
0000
0000
0000
0000
0000
0000
0000
0000
0000
0000
00c0
0100
0100
0100
0200
0200
0200
0400
0400
0400
ENDCHAR
STARTCHAR swallow top center
ENCODING 164
SWIDTH 878 0
DWIDTH 10 0
BBX 10 20 0 -5
BITMAP
0000
0000
0000
0000
0000
0000
0000
0000
1e00
6180
8040
0000
0000
0000
0000
0000
0000
0000
0000
0000
ENDCHAR
STARTCHAR swallow top right
ENCODING 165
SWIDTH 878 0
DWIDTH 10 0
BBX 10 20 0 -5
BITMAP
0000
0000
0000
0000
0000
0000
0000
0000
0000
0000
c000
2000
2000
2000
1000
1000
1000
0800
0800
0800
ENDCHAR
STARTCHAR swallow mid left
ENCODING 166
SWIDTH 878 0
DWIDTH 10 0
BBX 10 20 0 -5
BITMAP
0400
0400
0400
0800
0800
0800
1000
1000
1000
1000
1000
1000
1000
1000
0800
0800
0800
0400
0400
0400
ENDCHAR
STARTCHAR swallow mid right
ENCODING 167
SWIDTH 878 0
DWIDTH 10 0
BBX 10 20 0 -5
BITMAP
0800
0800
0800
0400
0400
0400
0200
0200
0200
0200
0200
0200
0200
0200
0400
0400
0400
0800
0800
0800
ENDCHAR
STARTCHAR swallow bot left
ENCODING 168
SWIDTH 878 0
DWIDTH 10 0
BBX 10 20 0 -5
BITMAP
0400
0400
0400
0200
0200
0200
0100
0100
0100
00c0
0000
0000
0000
0000
0000
0000
0000
0000
0000
0000
ENDCHAR
STARTCHAR swallow bot center
ENCODING 169
SWIDTH 878 0
DWIDTH 10 0
BBX 10 20 0 -5
BITMAP
0000
0000
0000
0000
0000
0000
0000
0000
0000
8040
6180
1e00
0000
0000
0000
0000
0000
0000
0000
0000
ENDCHAR
STARTCHAR swallow bot right
ENCODING 170
SWIDTH 878 0
DWIDTH 10 0
BBX 10 20 0 -5
BITMAP
0800
0800
0800
1000
1000
1000
2000
2000
2000
c000
0000
0000
0000
0000
0000
0000
0000
0000
0000
0000
ENDCHAR
STARTCHAR explosion 1
ENCODING 171
SWIDTH 878 0
DWIDTH 10 0
BBX 10 20 0 -5
BITMAP
0000
01c0
0e00
31c0
ce00
31c0
c600
18c0
6700
98c0
2300
ccc0
3300
4c40
9380
2440
4980
b640
2880
5300
ENDCHAR
STARTCHAR explosion 2
ENCODING 172
SWIDTH 878 0
DWIDTH 10 0
BBX 10 20 0 -5
BITMAP
0800
f7c0
0800
f7c0
0800
f7c0
0800
f7c0
0800
f7c0
0800
f7c0
0800
f7c0
0800
f7c0
0800
f7c0
0800
f780
ENDCHAR
STARTCHAR explosion 3
ENCODING 173
SWIDTH 878 0
DWIDTH 10 0
BBX 10 20 0 -5
BITMAP
0000
c000
3800
c600
3980
c640
3180
8c40
7300
8cc0
6200
9980
6640
1900
e480
1240
c900
3680
8a40
6500
ENDCHAR
STARTCHAR explosion 4
ENCODING 174
SWIDTH 878 0
DWIDTH 10 0
BBX 10 20 0 -5
BITMAP
a4c0
2900
4a40
5480
a500
aa40
aa80
aa80
aa80
5540
aa80
aa80
aa80
aa40
a500
5480
4a40
2900
a4c0
5300
ENDCHAR
STARTCHAR explosion 5
ENCODING 175
SWIDTH 878 0
DWIDTH 10 0
BBX 10 20 0 -5
BITMAP
0840
f780
0840
7700
8880
7740
8880
b680
aa80
5540
aa80
b680
8880
7740
8880
7700
0840
f780
0840
f780
ENDCHAR
STARTCHAR explosion 6
ENCODING 176
SWIDTH 878 0
DWIDTH 10 0
BBX 10 20 0 -5
BITMAP
9280
4a40
2940
9540
5280
2a80
aa80
aa80
aa80
5540
aa80
aa80
aa80
2a80
5280
9540
2940
4a40
9280
6500
ENDCHAR
STARTCHAR explosion 7
ENCODING 177
SWIDTH 878 0
DWIDTH 10 0
BBX 10 20 0 -5
BITMAP
2880
b640
4980
2440
9380
4c40
3300
ccc0
2300
98c0
6700
18c0
c600
31c0
ce00
31c0
0e00
01c0
0000
0000
ENDCHAR
STARTCHAR explosion 8
ENCODING 178
SWIDTH 878 0
DWIDTH 10 0
BBX 10 20 0 -5
BITMAP
0800
f7c0
0800
f7c0
0800
f7c0
0800
f7c0
0800
f7c0
0800
f7c0
0800
f7c0
0800
f7c0
0800
f7c0
0800
0000
ENDCHAR
STARTCHAR explosion 9
ENCODING 179
SWIDTH 878 0
DWIDTH 10 0
BBX 10 20 0 -5
BITMAP
8a40
3680
c900
1240
e480
1900
6640
9980
6200
8cc0
7300
8c40
3180
c640
3980
c600
3800
c000
0000
0000
ENDCHAR
STARTCHAR illegal object
ENCODING 180
SWIDTH 878 0
DWIDTH 10 0
BBX 10 20 0 -5
BITMAP
0000
0000
0000
0000
0000
0000
0000
0000
3b80
4640
4440
4c40
3b80
0000
0000
0000
0000
0000
0000
0000
ENDCHAR
STARTCHAR amulet
ENCODING 181
SWIDTH 878 0
DWIDTH 10 0
BBX 10 20 0 -5
BITMAP
0000
0000
0000
0000
0000
1e00
2100
2100
2100
1100
1100
0e00
1f00
1f00
0e00
0000
0000
0000
0000
0000
ENDCHAR
STARTCHAR food
ENCODING 182
SWIDTH 878 0
DWIDTH 10 0
BBX 10 20 0 -5
BITMAP
0000
0000
0000
0000
0000
0000
0000
0000
3f00
3f00
3f00
1e00
0c00
0c00
0c00
3f00
0000
0000
0000
0000
ENDCHAR
STARTCHAR weapon
ENCODING 183
SWIDTH 878 0
DWIDTH 10 0
BBX 10 20 0 -5
BITMAP
0000
0000
1000
1800
1400
1200
1200
1200
1200
1200
1200
1200
7f80
1c00
1c00
1c00
1c00
1c00
0000
0000
ENDCHAR
STARTCHAR tool
ENCODING 184
SWIDTH 878 0
DWIDTH 10 0
BBX 10 20 0 -5
BITMAP
0000
0000
0000
0000
0000
0000
0000
0000
1e00
2100
2100
3f00
3f00
3f00
3f00
0000
0000
0000
0000
0000
ENDCHAR
STARTCHAR ball
ENCODING 185
SWIDTH 878 0
DWIDTH 10 0
BBX 10 20 0 -5
BITMAP
0000
0000
0000
0000
0000
0000
0000
0000
0000
0000
0000
0000
0000
0000
0e00
1f00
1f00
1f00
eac0
5780
ENDCHAR
STARTCHAR chain
ENCODING 186
SWIDTH 878 0
DWIDTH 10 0
BBX 10 20 0 -5
BITMAP
0000
0000
0000
0000
0000
0000
0000
0000
0000
0000
0000
0000
0000
0000
0000
0000
0000
6d80
9240
6d80
ENDCHAR
STARTCHAR rock
ENCODING 187
SWIDTH 878 0
DWIDTH 10 0
BBX 10 20 0 -5
BITMAP
0000
0000
0000
0000
0000
0000
0000
1e00
3100
2900
4280
6900
5480
5000
2280
4980
5f80
3500
ff40
bfc0
ENDCHAR
STARTCHAR armor
ENCODING 188
SWIDTH 878 0
DWIDTH 10 0
BBX 10 20 0 -5
BITMAP
0000
0000
0000
0000
2e80
3f80
2a80
3580
2a80
3580
2a80
1500
0a00
0400
0000
0000
0000
0000
0000
0000
ENDCHAR
STARTCHAR potion
ENCODING 189
SWIDTH 878 0
DWIDTH 10 0
BBX 10 20 0 -5
BITMAP
0000
0000
0000
0000
0000
0000
1e00
0c00
0c00
0c00
0c00
1e00
3700
3d00
2f00
3b00
1e00
0000
0000
0000
ENDCHAR
STARTCHAR scroll
ENCODING 190
SWIDTH 878 0
DWIDTH 10 0
BBX 10 20 0 -5
BITMAP
0000
0000
0000
0000
0000
3f00
7f80
3f00
2a00
1500
2a00
1500
2a00
3f00
7f80
3f00
0000
0000
0000
0000
ENDCHAR
STARTCHAR wand
ENCODING 191
SWIDTH 878 0
DWIDTH 10 0
BBX 10 20 0 -5
BITMAP
0000
0000
1100
1500
1240
0a80
0100
0400
0400
0800
0800
0800
1000
1000
1000
2000
0000
0000
0000
0000
ENDCHAR
STARTCHAR ring
ENCODING 192
SWIDTH 878 0
DWIDTH 10 0
BBX 10 20 0 -5
BITMAP
0000
0000
0000
0000
0000
2900
1200
4180
1c00
2280
2200
2200
1c80
4100
1480
2400
0000
0000
0000
0000
ENDCHAR
STARTCHAR gem
ENCODING 193
SWIDTH 878 0
DWIDTH 10 0
BBX 10 20 0 -5
BITMAP
0000
0000
0000
0000
0000
0000
0000
0000
0000
0000
0000
0000
0000
3e00
6300
2200
1c00
0800
0000
0000
ENDCHAR
STARTCHAR gold
ENCODING 194
SWIDTH 878 0
DWIDTH 10 0
BBX 10 20 0 -5
BITMAP
0000
0000
0000
0000
0000
0000
0000
0000
0000
2a00
2a00
5280
5480
4500
0000
3000
5f00
7d80
6f80
1c00
ENDCHAR
STARTCHAR venom
ENCODING 195
SWIDTH 878 0
DWIDTH 10 0
BBX 10 20 0 -5
BITMAP
0000
0000
0000
0000
0000
0000
0000
0c00
1200
2200
2c00
1000
0000
0000
0000
0000
0000
0000
0000
0000
ENDCHAR
STARTCHAR spbook
ENCODING 196
SWIDTH 878 0
DWIDTH 10 0
BBX 10 20 0 -5
BITMAP
0000
0000
0000
0000
0000
3e00
2300
3300
2300
2300
2300
3300
2300
3f00
3f00
0000
0000
0000
0000
0000
ENDCHAR
STARTCHAR Aring
ENCODING 197
SWIDTH 878 0
DWIDTH 10 0
BBX 10 20 0 -5
BITMAP
0000
0000
0c00
1200
1200
0c00
0c00
1e00
3300
6180
6180
7f80
6180
6180
6180
0000
0000
0000
0000
0000
ENDCHAR
STARTCHAR AE
ENCODING 198
SWIDTH 878 0
DWIDTH 10 0
BBX 10 20 0 -5
BITMAP
0000
0000
0f80
1e00
3600
3600
6600
6600
7f80
6600
6600
6600
6600
6600
6780
0000
0000
0000
0000
0000
ENDCHAR
STARTCHAR Ccedilla
ENCODING 199
SWIDTH 878 0
DWIDTH 10 0
BBX 10 20 0 -5
BITMAP
0000
0000
1e00
3300
6180
6000
6000
6000
6000
6000
6000
6000
6180
3300
1e00
0c00
0400
1200
0c00
0000
ENDCHAR
STARTCHAR Egrave
ENCODING 200
SWIDTH 878 0
DWIDTH 10 0
BBX 10 20 0 -5
BITMAP
0000
0000
3000
1800
0c00
0000
7f80
6000
6000
6000
7e00
6000
6000
6000
7f80
0000
0000
0000
0000
0000
ENDCHAR
STARTCHAR Eacute
ENCODING 201
SWIDTH 878 0
DWIDTH 10 0
BBX 10 20 0 -5
BITMAP
0000
0000
0600
0c00
1800
0000
7f80
6000
6000
6000
7e00
6000
6000
6000
7f80
0000
0000
0000
0000
0000
ENDCHAR
STARTCHAR Ecircumflex
ENCODING 202
SWIDTH 878 0
DWIDTH 10 0
BBX 10 20 0 -5
BITMAP
0000
0000
0c00
1e00
3300
0000
7f80
6000
6000
6000
7e00
6000
6000
6000
7f80
0000
0000
0000
0000
0000
ENDCHAR
STARTCHAR Edieresis
ENCODING 203
SWIDTH 878 0
DWIDTH 10 0
BBX 10 20 0 -5
BITMAP
0000
0000
3300
3300
0000
0000
7f80
6000
6000
6000
7e00
6000
6000
6000
7f80
0000
0000
0000
0000
0000
ENDCHAR
STARTCHAR Igrave
ENCODING 204
SWIDTH 878 0
DWIDTH 10 0
BBX 10 20 0 -5
BITMAP
0000
0000
3000
1800
0c00
0000
3f00
0c00
0c00
0c00
0c00
0c00
0c00
0c00
3f00
0000
0000
0000
0000
0000
ENDCHAR
STARTCHAR Iacute
ENCODING 205
SWIDTH 878 0
DWIDTH 10 0
BBX 10 20 0 -5
BITMAP
0000
0000
0600
0c00
1800
0000
3f00
0c00
0c00
0c00
0c00
0c00
0c00
0c00
3f00
0000
0000
0000
0000
0000
ENDCHAR
STARTCHAR Icircumflex
ENCODING 206
SWIDTH 878 0
DWIDTH 10 0
BBX 10 20 0 -5
BITMAP
0000
0000
0c00
1e00
3300
0000
3f00
0c00
0c00
0c00
0c00
0c00
0c00
0c00
3f00
0000
0000
0000
0000
0000
ENDCHAR
STARTCHAR Idieresis
ENCODING 207
SWIDTH 878 0
DWIDTH 10 0
BBX 10 20 0 -5
BITMAP
0000
0000
3300
3300
0000
0000
3f00
0c00
0c00
0c00
0c00
0c00
0c00
0c00
3f00
0000
0000
0000
0000
0000
ENDCHAR
STARTCHAR Eth
ENCODING 208
SWIDTH 878 0
DWIDTH 10 0
BBX 10 20 0 -5
BITMAP
0000
0000
7e00
6300
6180
6180
6180
6180
f980
6180
6180
6180
6180
6300
7e00
0000
0000
0000
0000
0000
ENDCHAR
STARTCHAR Ntilde
ENCODING 209
SWIDTH 878 0
DWIDTH 10 0
BBX 10 20 0 -5
BITMAP
0000
0000
1900
3f00
2600
0000
4180
6180
7180
7980
7d80
6f80
6780
6380
6180
0000
0000
0000
0000
0000
ENDCHAR
STARTCHAR Ograve
ENCODING 210
SWIDTH 878 0
DWIDTH 10 0
BBX 10 20 0 -5
BITMAP
0000
0000
3000
1800
0c00
0000
1e00
3300
6180
6180
6180
6180
6180
3300
1e00
0000
0000
0000
0000
0000
ENDCHAR
STARTCHAR Oacute
ENCODING 211
SWIDTH 878 0
DWIDTH 10 0
BBX 10 20 0 -5
BITMAP
0000
0000
0300
0600
0c00
0000
1e00
3300
6180
6180
6180
6180
6180
3300
1e00
0000
0000
0000
0000
0000
ENDCHAR
STARTCHAR Ocircumflex
ENCODING 212
SWIDTH 878 0
DWIDTH 10 0
BBX 10 20 0 -5
BITMAP
0000
0000
0c00
1e00
3300
0000
1e00
3300
6180
6180
6180
6180
6180
3300
1e00
0000
0000
0000
0000
0000
ENDCHAR
STARTCHAR Otilde
ENCODING 213
SWIDTH 878 0
DWIDTH 10 0
BBX 10 20 0 -5
BITMAP
0000
0000
1900
3f00
2600
0000
1e00
3300
6180
6180
6180
6180
6180
3300
1e00
0000
0000
0000
0000
0000
ENDCHAR
STARTCHAR Odieresis
ENCODING 214
SWIDTH 878 0
DWIDTH 10 0
BBX 10 20 0 -5
BITMAP
0000
0000
3300
3300
0000
0000
1e00
3300
6180
6180
6180
6180
6180
3300
1e00
0000
0000
0000
0000
0000
ENDCHAR
STARTCHAR multiply
ENCODING 215
SWIDTH 878 0
DWIDTH 10 0
BBX 10 20 0 -5
BITMAP
0000
0000
0000
0000
0000
0000
0000
2080
3180
1b00
0e00
0e00
1b00
3180
2080
0000
0000
0000
0000
0000
ENDCHAR
STARTCHAR Oslash
ENCODING 216
SWIDTH 878 0
DWIDTH 10 0
BBX 10 20 0 -5
BITMAP
0000
0000
0000
0000
0080
1f80
3300
6380
6580
6580
6980
6980
7180
3300
7e00
4000
0000
0000
0000
0000
ENDCHAR
STARTCHAR Ugrave
ENCODING 217
SWIDTH 878 0
DWIDTH 10 0
BBX 10 20 0 -5
BITMAP
0000
0000
3000
1800
0c00
0000
6180
6180
6180
6180
6180
6180
6180
3300
1e00
0000
0000
0000
0000
0000
ENDCHAR
STARTCHAR Uacute
ENCODING 218
SWIDTH 878 0
DWIDTH 10 0
BBX 10 20 0 -5
BITMAP
0000
0000
0300
0600
0c00
0000
6180
6180
6180
6180
6180
6180
6180
3300
1e00
0000
0000
0000
0000
0000
ENDCHAR
STARTCHAR Ucircumflex
ENCODING 219
SWIDTH 878 0
DWIDTH 10 0
BBX 10 20 0 -5
BITMAP
0000
0000
0c00
1e00
3300
0000
6180
6180
6180
6180
6180
6180
6180
3380
1e00
0000
0000
0000
0000
0000
ENDCHAR
STARTCHAR Udieresis
ENCODING 220
SWIDTH 878 0
DWIDTH 10 0
BBX 10 20 0 -5
BITMAP
0000
0000
3300
3300
0000
0000
6180
6180
6180
6180
6180
6180
6180
3300
1e00
0000
0000
0000
0000
0000
ENDCHAR
STARTCHAR Yacute
ENCODING 221
SWIDTH 878 0
DWIDTH 10 0
BBX 10 20 0 -5
BITMAP
0000
0000
0300
0600
0c00
0000
4080
6180
3300
1e00
0c00
0c00
0c00
0c00
0c00
0000
0000
0000
0000
0000
ENDCHAR
STARTCHAR Thorn
ENCODING 222
SWIDTH 878 0
DWIDTH 10 0
BBX 10 20 0 -5
BITMAP
0000
0000
0000
0000
3c00
1800
1f00
1980
1980
1980
1f00
1800
1800
1800
3c00
0000
0000
0000
0000
0000
ENDCHAR
STARTCHAR germandbls
ENCODING 223
SWIDTH 878 0
DWIDTH 10 0
BBX 10 20 0 -5
BITMAP
0000
0000
0000
1c00
3e00
7300
6300
6300
6600
6c00
6600
6300
6100
6300
6e00
0000
0000
0000
0000
0000
ENDCHAR
STARTCHAR agave
ENCODING 224
SWIDTH 878 0
DWIDTH 10 0
BBX 10 20 0 -5
BITMAP
0000
0000
3000
1800
0c00
0000
0000
3f00
6180
0180
3f80
6180
6180
6180
3e80
0000
0000
0000
0000
0000
ENDCHAR
STARTCHAR aacute
ENCODING 225
SWIDTH 878 0
DWIDTH 10 0
BBX 10 20 0 -5
BITMAP
0000
0000
0600
0c00
1800
0000
0000
3f00
6180
0180
3f80
6180
6180
6180
3e80
0000
0000
0000
0000
0000
ENDCHAR
STARTCHAR acircumflex
ENCODING 226
SWIDTH 878 0
DWIDTH 10 0
BBX 10 20 0 -5
BITMAP
0000
0000
0c00
1e00
3300
0000
0000
3f00
6180
0180
3f80
6180
6180
6180
3e80
0000
0000
0000
0000
0000
ENDCHAR
STARTCHAR atilde
ENCODING 227
SWIDTH 878 0
DWIDTH 10 0
BBX 10 20 0 -5
BITMAP
0000
0000
1900
3f00
2600
0000
0000
3f00
6180
0180
3f80
6180
6180
6180
3e80
0000
0000
0000
0000
0000
ENDCHAR
STARTCHAR adieresis
ENCODING 228
SWIDTH 878 0
DWIDTH 10 0
BBX 10 20 0 -5
BITMAP
0000
0000
3300
3300
0000
0000
0000
3f00
6180
0180
3f80
6180
6180
6180
3e80
0000
0000
0000
0000
0000
ENDCHAR
STARTCHAR aring
ENCODING 229
SWIDTH 878 0
DWIDTH 10 0
BBX 10 20 0 -5
BITMAP
0000
0000
0000
0c00
1200
1200
0c00
3f00
6180
0180
3f80
6180
6180
6180
3e80
0000
0000
0000
0000
0000
ENDCHAR
STARTCHAR ae
ENCODING 230
SWIDTH 878 0
DWIDTH 10 0
BBX 10 20 0 -5
BITMAP
0000
0000
0000
0000
0000
0000
0000
3b00
4d80
0d80
0f00
3c00
6c00
6c80
3700
0000
0000
0000
0000
0000
ENDCHAR
STARTCHAR ccedilla
ENCODING 231
SWIDTH 878 0
DWIDTH 10 0
BBX 10 20 0 -5
BITMAP
0000
0000
0000
0000
0000
0000
0000
1f00
3180
6000
6000
6000
6000
3180
1f00
0c00
0400
1200
0c00
0000
ENDCHAR
STARTCHAR egrave
ENCODING 232
SWIDTH 878 0
DWIDTH 10 0
BBX 10 20 0 -5
BITMAP
0000
0000
3000
1800
0c00
0000
0000
1e00
3300
6180
7f80
6000
6000
3180
1f00
0000
0000
0000
0000
0000
ENDCHAR
STARTCHAR eacute
ENCODING 233
SWIDTH 878 0
DWIDTH 10 0
BBX 10 20 0 -5
BITMAP
0000
0000
0600
0c00
1800
0000
0000
1e00
3300
6180
7f80
6000
6000
3180
1f00
0000
0000
0000
0000
0000
ENDCHAR
STARTCHAR ecircumflex
ENCODING 234
SWIDTH 878 0
DWIDTH 10 0
BBX 10 20 0 -5
BITMAP
0000
0000
0c00
1e00
3300
0000
0000
1e00
3300
6180
7f80
6000
6000
3180
1f00
0000
0000
0000
0000
0000
ENDCHAR
STARTCHAR edieresis
ENCODING 235
SWIDTH 878 0
DWIDTH 10 0
BBX 10 20 0 -5
BITMAP
0000
0000
3300
3300
0000
0000
0000
1e00
3300
6180
7f80
6000
6000
3180
1f00
0000
0000
0000
0000
0000
ENDCHAR
STARTCHAR igrave
ENCODING 236
SWIDTH 878 0
DWIDTH 10 0
BBX 10 20 0 -5
BITMAP
0000
0000
3000
1800
0c00
0000
0000
3c00
0c00
0c00
0c00
0c00
0c00
0c00
7f80
0000
0000
0000
0000
0000
ENDCHAR
STARTCHAR iacute
ENCODING 237
SWIDTH 878 0
DWIDTH 10 0
BBX 10 20 0 -5
BITMAP
0000
0000
0600
0c00
1800
0000
0000
3c00
0c00
0c00
0c00
0c00
0c00
0c00
7f80
0000
0000
0000
0000
0000
ENDCHAR
STARTCHAR icircumflex
ENCODING 238
SWIDTH 878 0
DWIDTH 10 0
BBX 10 20 0 -5
BITMAP
0000
0000
0c00
1e00
3300
0000
0000
3c00
0c00
0c00
0c00
0c00
0c00
0c00
7f80
0000
0000
0000
0000
0000
ENDCHAR
STARTCHAR idieresis
ENCODING 239
SWIDTH 878 0
DWIDTH 10 0
BBX 10 20 0 -5
BITMAP
0000
0000
3300
3300
0000
0000
0000
3c00
0c00
0c00
0c00
0c00
0c00
0c00
7f80
0000
0000
0000
0000
0000
ENDCHAR
STARTCHAR eth
ENCODING 240
SWIDTH 878 0
DWIDTH 10 0
BBX 10 20 0 -5
BITMAP
0000
0000
4400
6c00
3800
3800
6c00
4600
1f00
3380
6180
6180
6180
3300
1e00
0000
0000
0000
0000
0000
ENDCHAR
STARTCHAR ntilde
ENCODING 241
SWIDTH 878 0
DWIDTH 10 0
BBX 10 20 0 -5
BITMAP
0000
0000
1900
3f00
2600
0000
0000
6e00
7300
6180
6180
6180
6180
6180
6180
0000
0000
0000
0000
0000
ENDCHAR
STARTCHAR ograve
ENCODING 242
SWIDTH 878 0
DWIDTH 10 0
BBX 10 20 0 -5
BITMAP
0000
0000
3000
1800
0c00
0000
0000
1e00
3300
6180
6180
6180
6180
3300
1e00
0000
0000
0000
0000
0000
ENDCHAR
STARTCHAR oacute
ENCODING 243
SWIDTH 878 0
DWIDTH 10 0
BBX 10 20 0 -5
BITMAP
0000
0000
0600
0c00
1800
0000
0000
1e00
3300
6180
6180
6180
6180
3300
1e00
0000
0000
0000
0000
0000
ENDCHAR
STARTCHAR ocircumflex
ENCODING 244
SWIDTH 878 0
DWIDTH 10 0
BBX 10 20 0 -5
BITMAP
0000
0000
0c00
1e00
3300
0000
0000
1e00
3300
6180
6180
6180
6180
3300
1e00
0000
0000
0000
0000
0000
ENDCHAR
STARTCHAR otilde
ENCODING 245
SWIDTH 878 0
DWIDTH 10 0
BBX 10 20 0 -5
BITMAP
0000
0000
1900
3f00
2600
0000
0000
1e00
3300
6180
6180
6180
6180
3300
1e00
0000
0000
0000
0000
0000
ENDCHAR
STARTCHAR odieresis
ENCODING 246
SWIDTH 878 0
DWIDTH 10 0
BBX 10 20 0 -5
BITMAP
0000
0000
3300
3300
0000
0000
0000
1e00
3300
6180
6180
6180
6180
3300
1e00
0000
0000
0000
0000
0000
ENDCHAR
STARTCHAR divide
ENCODING 247
SWIDTH 878 0
DWIDTH 10 0
BBX 10 20 0 -5
BITMAP
0000
0000
0000
0000
0c00
0c00
0000
0000
7f80
7f80
0000
0000
0c00
0c00
0000
0000
0000
0000
0000
0000
ENDCHAR
STARTCHAR oslash
ENCODING 248
SWIDTH 878 0
DWIDTH 10 0
BBX 10 20 0 -5
BITMAP
0000
0000
0000
0000
0000
0000
0000
1e80
3380
6380
6780
6d80
7980
3300
7e00
4000
0000
0000
0000
0000
ENDCHAR
STARTCHAR ugrave
ENCODING 249
SWIDTH 878 0
DWIDTH 10 0
BBX 10 20 0 -5
BITMAP
0000
0000
3000
1800
0c00
0000
0000
6180
6180
6180
6180
6180
6180
3380
1d80
0000
0000
0000
0000
0000
ENDCHAR
STARTCHAR uacute
ENCODING 250
SWIDTH 878 0
DWIDTH 10 0
BBX 10 20 0 -5
BITMAP
0000
0000
0600
0c00
1800
0000
0000
6180
6180
6180
6180
6180
6180
3380
1d80
0000
0000
0000
0000
0000
ENDCHAR
STARTCHAR ucircumflex
ENCODING 251
SWIDTH 878 0
DWIDTH 10 0
BBX 10 20 0 -5
BITMAP
0000
0000
0c00
1e00
3300
0000
0000
6180
6180
6180
6180
6180
6180
3380
1d80
0000
0000
0000
0000
0000
ENDCHAR
STARTCHAR udieresis
ENCODING 252
SWIDTH 878 0
DWIDTH 10 0
BBX 10 20 0 -5
BITMAP
0000
0000
3300
3300
0000
0000
0000
6180
6180
6180
6180
6180
6180
3380
1d80
0000
0000
0000
0000
0000
ENDCHAR
STARTCHAR yacute
ENCODING 253
SWIDTH 878 0
DWIDTH 10 0
BBX 10 20 0 -5
BITMAP
0000
0000
0600
0c00
1800
0000
0000
0000
6180
6180
6180
6180
6180
3380
1d80
0180
6180
3300
1e00
0000
ENDCHAR
STARTCHAR thorn
ENCODING 254
SWIDTH 878 0
DWIDTH 10 0
BBX 10 20 0 -5
BITMAP
0000
0000
0000
0000
0000
0000
0000
3800
1e00
1b00
1b00
1e00
1800
1800
3800
0000
0000
0000
0000
0000
ENDCHAR
STARTCHAR ydieresis
ENCODING 255
SWIDTH 878 0
DWIDTH 10 0
BBX 10 20 0 -5
BITMAP
0000
0000
3300
3300
0000
0000
0000
0000
6180
6180
6180
6180
6180
3380
1d80
0180
6180
3300
1e00
0000
ENDCHAR
ENDFONT
