/* XPM */
static char * nh_icon[] = {
"40 40 6 1",
" 	s None c none",
".	c #ffffff",
"X	c #dadab6",
"o	c #6c91b6",
"O	c #476c6c",
"+	c #000000",
"                                        ",
"                                        ",
"                                        ",
"        .      .X..XX.XX      X         ",
"        ..   .....X.XXXXXX   XX         ",
"        ... ....X..XX.XXXXX XXX         ",
"   ..   ..........X.XXXXXXXXXXX   XX    ",
"   .... ........X..XX.XXXXXXXXX XXXX    ",
"   .... ..........X.XXXXXXXXXXX XXXX    ",
"   ooOOO..ooooooOooOOoOOOOOOOXX+++OO++  ",
"   ooOOO..ooooooooOoOOOOOOOOOXX+++OO++  ",
"   ....O..ooooooOooOOoOOOOOOOXX+XXXX++  ",
"   ....O..ooooooooOoOOOOOOOOOXX+XXXX++  ",
"   ..OOO..ooooooOooOOoOOOOOOOXX+++XX++  ",
"    ++++..ooooooooOoOOOOOOOOOXX+++ +++  ",
"     +++..ooooooOooOOoOOOOOOOXX+++  +   ",
"      ++..ooooooooOoOOOOOOOOOXX+++      ",
"        ..ooooooOooOOoOOOOOOOXX+++      ",
"        ..ooooooooOoOOOOOOOOOXX+++      ",
"        ..ooooooOooOOoOOOOOOOXX+++      ",
"        ..ooooooooOoOOOOOOOOOXX+++      ",
"         ..oooooOooOOoOOOOOOXX+++       ",
"         ..oooooooOoOOOOOOOOXX+++       ",
"          ..ooooOooOOoOOOOOXX+++        ",
"          ..ooooooOoOOOOOOOXX++++       ",
"        ..o..oooOooOOoOOOOXX+XX+++      ",
"       ...o..oooooOoOOOOOXX++XXX++      ",
"      ....OO..ooOooOOoOOXX+++XXXX++     ",
"     ...oo..+..oooOoOOOXX++XXooXXX++    ",
"    ...ooo..++..OooOOoXX+++XXooOXXX+    ",
"   ..oooOOXX+++....XXXX++++XXOOoOOXX+   ",
"   ..oooOOXX+++ ...XXX+++++XXOOooOXX++  ",
"   ..oooOXXX+++  ..XX+++  +XXOOooOXX++  ",
"   .....XXX++++             XXXXXXX++   ",
"    ....XX++++              XXXXXXX+    ",
"     ...XX+++                XXXXX++    ",
"                                        ",
"                                        ",
"                                        ",
"                                        "};
