#define pet_mark_width 16
#define pet_mark_height 16
static unsigned char pet_mark_bits[] = {
   0x00, 0x00, 0x6c, 0x00, 0xfe, 0x00, 0xfe, 0x00, 0x7c, 0x00, 0x38, 0x00,
   0x10, 0x00, 0x00, 0x00, 0x00, 0x00, 0x00, 0x00, 0x00, 0x00, 0x00, 0x00,
   0x00, 0x00, 0x00, 0x00, 0x00, 0x00, 0x00, 0x00};
