#define pilemark_width 16
#define pilemark_height 16
static unsigned char pilemark_bits[] = {
   0x00, 0x00, 0x18, 0x00, 0x18, 0x00, 0x7e, 0x00, 0x7e, 0x00, 0x18, 0x00,
   0x18, 0x00, 0x00, 0x00, 0x00, 0x00, 0x00, 0x00, 0x00, 0x00, 0x00, 0x00,
   0x00, 0x00, 0x00, 0x00, 0x00, 0x00, 0x00, 0x00 };
