/* XPM */
static char *noname[] = {
/* width height ncolors chars_per_pixel */
"40 40 20 1",
/* colors */
"  c #000000",
". c #0000C0",
"X c #FFC0FF",
"o c #FFC0C0",
"O c #DCDCDC",
"+ c #C0C0FF",
"@ c #008080",
"# c #A0A0A0",
"$ c None",
"% c #000080",
"& c #585858",
"* c #800080",
"= c #FFFFFF",
"- c #FFFFC0",
"; c #00C0C0",
": c #C0FFFF",
"> c #C0FFC0",
", c #C3C3C3",
"< c #FFDCA8",
"1 c #0000FF",
/* pixels */
"$$$$$$$$$$$$$$$$$$$$$$$$$$$$$$$$$$$$$$$$",
"$$$$$$$$$$$$$$$$$$$$$$$$$$$$$$$$$$$$$$$$",
"$$$$$$$$$$$$$$$$$$$$$$$$$$$$$$$$$$$$$$$$",
"$$$$$$$$=$$$$$$=,==<,=<,$$$$$$,$$$$$$$$$",
"$$$$$$$$==$$$=====,=<>,<><$$$<>$$$$$$$$$",
"$$$$$$$$===$====,==>,=<,<,,$,,<$$$$$$$$$",
"$$$==$$$==========<=<,><,><<><,$$$,<$$$$",
"$$$====$========,==,,=<>,<,>,<,$<><,$$$$",
"$$$====$==========<=<,,<<><,<><$,,<>$$$$",
"$$$$#&&&==$#$#$#@#$&@#&&@&&&&,,   &&  $$",
"$$$;#@&@==;#;#;#$;&#@&@$&@&@$><   &@  $$",
"$$$====&==###1##.##@&#&@&&$&&<, <>O<  $$",
"$$$====&==$;##;##;&#@&@$&@&@&>, O<,>  $$",
"$$$==&@&==#1#;##.##@&#&@&$@$&,<   ,<  $$",
"$$$$    ==###1#;##.#@$&&&@&&@-,   $   $$",
"$$$$$   =X;#;###&;#&@#&@$&@$&,<   $$ $$$",
"$$$$$$  ==#$+@+1##@#&@&$@&&&@<>   $$$$$$",
"$$$$$$$$=X;#1#$#@##@&#@&&&@$&<,   $$$$$$",
"$$$$$$$$==##;#;##1$#@&$@$&&@&><   $$$$$$",
"$$$$$$$$=X;###1#@##@&#@&&@$&&O,   $$$$$$",
"$$$$$$$$==#1#;##;#.#@&&$@&@&@<>   $$$$$$",
"$$$$$$$$$==###;#*;#&@#&@&&$&O<   $$$$$$$",
"$$$$$$$$$==;#1,$;#&#@$@&$@&@<,   $$$$$$$",
"$$$$$$$$$$=X####.##@&#&&@&&<O   $$$$$$$$",
"$$$$$$$$$$==;#;##;*#@&@$&&@O<    $$$$$$$",
"$$$$$$$$==$==1##.#;&@+&&@&O< <,   $$$$$$",
"$$$$$$$===#:=#;###&+%&@$&O>  ><,  $$$$$$",
"$$$$$$====@&=O##@#;&@#&&,<   <,><  $$$$$",
"$$$$$===#$== ==$1#&#&@&O>  ,<$#,,>  $$$$",
"$$$$===#;#==  ==$#;&@#O,   >,#;&<,< $$$$",
"$$$==$#;*@O<   ====Oo,>    <,&$#@&O, $$$",
"$$$==;$#&&<,   $===<,<     <O@&;#&><  $$",
"$$$==##;&O>,   $$==,>   $$ ,<&&#$@o,  $$",
"$$$===X=O,<    $$$$$$$$$$$$$>OO,Oo>  $$$",
"$$$$====,<    $$$$$$$$$$$$$$,<,>,<, $$$$",
"$$$$$===<>   $$$$$$$$$$$$$$$$><,<>  $$$$",
"$$$$$$$$$$$$$$$$$$$$$$$$$$$$$$$$$$$$$$$$",
"$$$$$$$$$$$$$$$$$$$$$$$$$$$$$$$$$$$$$$$$",
"$$$$$$$$$$$$$$$$$$$$$$$$$$$$$$$$$$$$$$$$",
"$$$$$$$$$$$$$$$$$$$$$$$$$$$$$$$$$$$$$$$$"
};
